<svg width="222" height="92" viewBox="0 0 222 92" fill="none">
    <g clip-path="url(#clip0_3992_11409)">
        <path
            d="M28.0582 14.4423V10.6094H0.000976562V40.7828H28.0582V36.9543H4.26591V27.6571H26.2261V23.8286H4.26591V14.4423H28.0582Z"
            fill="#76871E" />
        <path
            d="M64.1941 40.7828V10.6094H59.9788V35.2919L39.389 10.6094H34.3545V40.7828H38.6244V16.0468L59.2142 40.7828H64.1941Z"
            fill="#76871E" />
        <path
            d="M100.587 24.6755H87.1514V28.504H96.3714V36.9543H75.017V14.4423H96.3714V17.7316H100.587V13.132L97.856 10.6094H73.4778L70.7471 13.132V38.3449L73.4629 40.7828H97.8708L100.587 38.3449V24.6755Z"
            fill="#76871E" />
        <path d="M146.326 23.8286H120.423V14.4423H144.22V10.6094H116.158V40.7873H120.423V27.6616H146.326V23.8286Z"
            fill="#76871E" />
        <path
            d="M221.999 25.3097V13.2804L219.269 10.7578H192.155V23.8434H187.944V27.6585H192.155V40.9357H196.42V27.6585H207.923L217.779 34.9723V40.9357H221.994V32.9311L214.874 27.6585H219.1L221.994 25.3052L221.999 25.3097ZM217.784 23.83H196.425V14.5908H217.784V23.83Z"
            fill="#76871E" />
        <path
            d="M8.42658 54.1953V84.4401H29.4236V54.1953H37.7846V88.2775L33.6339 92.0035H4.15172L0.000976562 88.2775V54.1953H8.42658Z"
            fill="#1D1D1B" />
        <path
            d="M43.873 92.0035V65.5917L56.4494 54.1953H81.6617V92.0035H73.3006V80.7141H52.3036V92.0035H43.878H43.873ZM73.2956 73.1551V61.7587H60.6597L52.2986 69.3756V73.1551H73.2956Z"
            fill="#1D1D1B" />
        <path
            d="M117.493 92.0035V88.2775L113.283 84.4445L109.072 80.7185H96.4959V92.0079H88.0703V54.1953H121.703L125.854 58.0283V76.9301L121.703 80.7096L125.854 84.4356V91.999H117.493V92.0035ZM117.493 73.1551V61.7587H96.4959V73.1551H117.493Z"
            fill="#1D1D1B" />
        <path
            d="M132.209 92.0035V54.1953H140.635L155.316 72.5044L170.236 54.1953H178.359V92.0035H169.933V66.5098L158.921 81.0394H151.88L140.63 66.5098V92.0035H132.204H132.209Z"
            fill="#1D1D1B" />
        <path
            d="M198.949 92.0035V77.7457L184.208 68.2926V54.1953H192.634V65.1059L203.045 71.4793L213.636 65.1059V54.1953H221.997V68.2926L207.315 77.7457V92.0035H198.954H198.949Z"
            fill="#1D1D1B" />
        <path
            d="M188.136 25.6675C188.136 15.5993 179.586 7.3272 168.653 6.37341V1.90757C168.653 0.855731 167.705 0 166.528 0C165.352 0 164.403 0.851274 164.403 1.90757V6.37341C153.475 7.33611 144.94 15.6037 144.94 25.6675C144.94 35.7312 153.49 44.0077 164.423 44.9615V48.9416C164.423 49.9934 165.371 50.8491 166.548 50.8491C167.725 50.8491 168.673 49.9979 168.673 48.9416V44.9571C179.601 43.9944 188.136 35.7268 188.136 25.663V25.6675ZM166.92 18.6924C167.904 18.5275 168.648 17.752 168.648 16.8205V10.1172C176.602 10.9819 182.923 16.6689 183.861 23.8134H176.443C175.376 23.8134 174.502 24.5176 174.353 25.4402H166.92V18.6879V18.6924ZM164.403 10.1217V16.8205C164.403 17.7564 165.158 18.5319 166.151 18.6924V25.4402H158.693C158.54 24.522 157.671 23.8178 156.603 23.8178H149.205C150.144 16.6778 156.454 10.9908 164.403 10.1172V10.1217ZM164.403 41.2132C156.499 40.3441 150.213 34.715 149.225 27.6241H156.608C157.621 27.6241 158.47 26.9823 158.679 26.131H166.156V32.7273C165.163 32.8877 164.408 33.6632 164.408 34.5992V41.2132H164.403ZM168.648 41.2132V34.5947C168.648 33.6632 167.904 32.8922 166.92 32.7228V26.1221H174.373C174.581 26.9778 175.43 27.6196 176.443 27.6196H183.846C182.853 34.715 176.563 40.3441 168.648 41.2088V41.2132Z"
            fill="#1D1D1B" />
    </g>
    <defs>
        <clipPath id="clip0_3992_11409">
            <rect width="222" height="92" fill="white" />
        </clipPath>
    </defs>
</svg>